# xmcd CD database file
# Copyright (C) 2005 Ti Kan
# 
# Track frame offsets:
#     150
#     18409
#     34317
#     50693
#     93442
#     114995
#     137003
#     163784
#     189252
#     205179
#     223185
#     248874
# 
# Disc length: 3711 seconds
# 
# Revision: 2
# Processed by: cddbd v1.5.1PL0 Copyright (c) Steve Scherf et al.
# Submitted via: DiscPlay 4.0.4
# 
DISCID=a90e7d0c
DTITLE=Michel Camilo - Solo
DYEAR=1900
DGENRE=
TTITLE0=A Dream
TTITLE1=Minha (All Mine)
TTITLE2=Our Love Is Here To Stay
TTITLE3=Reflections
TTITLE4=Luiza
TTITLE5='round Midnight
TTITLE6=Atras Da Porta
TTITLE7=Someone To Watch Over Me
TTITLE8=Un Son
TTITLE9=The Frim Fram Sauce
TTITLE10=Corcovado (Quiet Nights)
TTITLE11=Suntan
EXTD=
EXTT0=
EXTT1=
EXTT2=
EXTT3=
EXTT4=
EXTT5=
EXTT6=
EXTT7=
EXTT8=
EXTT9=
EXTT10=
EXTT11=
PLAYORDER=
